<svg xmlns="http://www.w3.org/2000/svg" viewBox="0 0 1024 1024" width="64" height="64">
  <defs>
    <linearGradient id="bgGrad" x1="0" y1="0" x2="0" y2="1">
      <stop offset="0%" stop-color="#1e2330"/>
      <stop offset="100%" stop-color="#0a0e15"/>
    </linearGradient>
    <g id="armBlue" stroke="#38bdf8" stroke-linecap="round" fill="none">
      <line x1="0" y1="8" x2="0" y2="230" stroke-width="13"/>
      <line x1="0" y1="80" x2="44" y2="120" stroke-width="11"/>
      <line x1="0" y1="80" x2="-44" y2="120" stroke-width="11"/>
      <line x1="0" y1="155" x2="36" y2="190" stroke-width="10"/>
      <line x1="0" y1="155" x2="-36" y2="190" stroke-width="10"/>
      <line x1="0" y1="205" x2="22" y2="234" stroke-width="9"/>
      <line x1="0" y1="205" x2="-22" y2="234" stroke-width="9"/>
    </g>
    <g id="armOrange" stroke="#fb923c" stroke-linecap="round" fill="none">
      <line x1="0" y1="8" x2="0" y2="230" stroke-width="13"/>
      <line x1="0" y1="80" x2="44" y2="120" stroke-width="11"/>
      <line x1="0" y1="80" x2="-44" y2="120" stroke-width="11"/>
      <line x1="0" y1="155" x2="36" y2="190" stroke-width="10"/>
      <line x1="0" y1="155" x2="-36" y2="190" stroke-width="10"/>
      <line x1="0" y1="205" x2="22" y2="234" stroke-width="9"/>
      <line x1="0" y1="205" x2="-22" y2="234" stroke-width="9"/>
    </g>
  </defs>

  <rect width="1024" height="1024" rx="200" fill="url(#bgGrad)"/>

  <g transform="translate(512 512)">
    <path d="M -300 0 A 300 300 0 0 1 300 0" stroke="#a855f7" stroke-width="14" fill="none" stroke-linecap="round"/>
    <line x1="0" y1="-322" x2="0" y2="-292" stroke="#ffffff" stroke-width="6" stroke-linecap="round"/>
  </g>

  <g transform="translate(512 512)">
    <use href="#armBlue" transform="rotate(30)"/>
    <use href="#armBlue" transform="rotate(90)"/>
    <use href="#armBlue" transform="rotate(150)"/>
    <use href="#armOrange" transform="rotate(210)"/>
    <use href="#armOrange" transform="rotate(270)"/>
    <use href="#armOrange" transform="rotate(330)"/>
  </g>

  <g transform="translate(512 512)">
    <path d="M -28 -210 Q -28 -222 -16 -222 L 16 -222 Q 28 -222 28 -210 L 28 105 A 50 50 0 1 1 -28 105 Z"
          stroke="#fb923c" stroke-width="12" fill="#0a0e15" stroke-linejoin="round"/>
    <rect x="-12" y="-185" width="24" height="325" rx="12" fill="#fb923c"/>
    <circle cx="0" cy="150" r="34" fill="#fb923c"/>
    <circle r="22" fill="#0a0e15" stroke="#22c55e" stroke-width="3"/>
    <path d="M -10 8 Q -2 -14 14 -7 Q 14 9 -2 13 Z" fill="#22c55e"/>
  </g>
</svg>
