<svg xmlns="http://www.w3.org/2000/svg" viewBox="0 0 1024 1024" width="1024" height="1024">
  <defs>
    <linearGradient id="bgGrad" x1="0" y1="0" x2="0" y2="1">
      <stop offset="0%" stop-color="#1e2330"/>
      <stop offset="100%" stop-color="#0a0e15"/>
    </linearGradient>

    <g id="armBlue" stroke="#38bdf8" stroke-linecap="round" fill="none">
      <line x1="0" y1="8" x2="0" y2="230" stroke-width="13"/>
      <line x1="0" y1="80" x2="44" y2="120" stroke-width="11"/>
      <line x1="0" y1="80" x2="-44" y2="120" stroke-width="11"/>
      <line x1="0" y1="155" x2="36" y2="190" stroke-width="10"/>
      <line x1="0" y1="155" x2="-36" y2="190" stroke-width="10"/>
      <line x1="0" y1="205" x2="22" y2="234" stroke-width="9"/>
      <line x1="0" y1="205" x2="-22" y2="234" stroke-width="9"/>
    </g>
    <g id="armOrange" stroke="#fb923c" stroke-linecap="round" fill="none">
      <line x1="0" y1="8" x2="0" y2="230" stroke-width="13"/>
      <line x1="0" y1="80" x2="44" y2="120" stroke-width="11"/>
      <line x1="0" y1="80" x2="-44" y2="120" stroke-width="11"/>
      <line x1="0" y1="155" x2="36" y2="190" stroke-width="10"/>
      <line x1="0" y1="155" x2="-36" y2="190" stroke-width="10"/>
      <line x1="0" y1="205" x2="22" y2="234" stroke-width="9"/>
      <line x1="0" y1="205" x2="-22" y2="234" stroke-width="9"/>
    </g>
  </defs>

  <rect width="1024" height="1024" rx="200" ry="200" fill="url(#bgGrad)"/>

  <g transform="translate(512 500)">
    <path d="M -300 0 A 300 300 0 0 1 300 0"
          stroke="#a855f7" stroke-width="14" fill="none" stroke-linecap="round"/>
    <g stroke="#a855f7" stroke-width="3" stroke-linecap="round">
      <line x1="-285" y1="0" x2="-312" y2="0"/>
      <line x1="-275" y1="-74" x2="-301" y2="-81"/>
      <line x1="-247" y1="-142" x2="-270" y2="-156"/>
      <line x1="-202" y1="-202" x2="-220" y2="-220"/>
      <line x1="-142" y1="-247" x2="-156" y2="-270"/>
      <line x1="-74" y1="-275" x2="-81" y2="-301"/>
      <line x1="0" y1="-285" x2="0" y2="-312"/>
      <line x1="74" y1="-275" x2="81" y2="-301"/>
      <line x1="142" y1="-247" x2="156" y2="-270"/>
      <line x1="202" y1="-202" x2="220" y2="-220"/>
      <line x1="247" y1="-142" x2="270" y2="-156"/>
      <line x1="275" y1="-74" x2="301" y2="-81"/>
      <line x1="285" y1="0" x2="312" y2="0"/>
    </g>
    <g stroke="#a855f7" stroke-width="2" stroke-linecap="round" opacity="0.7">
      <line x1="-282" y1="-37" x2="-296" y2="-39"/>
      <line x1="-263" y1="-110" x2="-276" y2="-115"/>
      <line x1="-227" y1="-176" x2="-238" y2="-184"/>
      <line x1="-176" y1="-227" x2="-184" y2="-238"/>
      <line x1="-110" y1="-263" x2="-115" y2="-276"/>
      <line x1="-37" y1="-282" x2="-39" y2="-296"/>
      <line x1="37" y1="-282" x2="39" y2="-296"/>
      <line x1="110" y1="-263" x2="115" y2="-276"/>
      <line x1="176" y1="-227" x2="184" y2="-238"/>
      <line x1="227" y1="-176" x2="238" y2="-184"/>
      <line x1="263" y1="-110" x2="276" y2="-115"/>
      <line x1="282" y1="-37" x2="296" y2="-39"/>
    </g>
    <line x1="0" y1="-322" x2="0" y2="-292"
          stroke="#ffffff" stroke-width="6" stroke-linecap="round"/>
  </g>

  <g transform="translate(512 500)">
    <use href="#armBlue" transform="rotate(30)"/>
    <use href="#armBlue" transform="rotate(90)"/>
    <use href="#armBlue" transform="rotate(150)"/>
    <use href="#armOrange" transform="rotate(210)"/>
    <use href="#armOrange" transform="rotate(270)"/>
    <use href="#armOrange" transform="rotate(330)"/>
  </g>

  <g transform="translate(512 500)">
    <path d="M -28 -210 Q -28 -222 -16 -222 L 16 -222 Q 28 -222 28 -210 L 28 105 A 50 50 0 1 1 -28 105 Z"
          stroke="#fb923c" stroke-width="12" fill="#0a0e15" stroke-linejoin="round"/>
    <rect x="-12" y="-185" width="24" height="325" rx="12" fill="#fb923c"/>
    <circle cx="0" cy="150" r="34" fill="#fb923c"/>
  </g>

  <g transform="translate(512 500)">
    <circle r="22" fill="#0a0e15" stroke="#22c55e" stroke-width="3"/>
    <path d="M -10 8 Q -2 -14 14 -7 Q 14 9 -2 13 Z" fill="#22c55e"/>
    <line x1="-10" y1="8" x2="6" y2="-3" stroke="#0a0e15" stroke-width="1.6" stroke-linecap="round"/>
  </g>

  <g transform="translate(512 905)">
    <text x="-46" y="0" font-family="Helvetica Neue, Helvetica, Arial, sans-serif"
          font-size="118" font-weight="600" fill="#cbd5e1" letter-spacing="-3" text-anchor="end">climac</text>
    <text x="46" y="0" font-family="Helvetica Neue, Helvetica, Arial, sans-serif"
          font-size="118" font-weight="600" fill="#cbd5e1" letter-spacing="-3" text-anchor="start">ntrol</text>

    <g transform="translate(0 -36)">
      <path d="M -42 -10 A 44 44 0 0 1 32 -28"
            stroke="#22c55e" stroke-width="5" fill="none" stroke-linecap="round"/>
      <polyline points="36,-32 30,-22 22,-26"
                stroke="#22c55e" stroke-width="5" fill="none"
                stroke-linecap="round" stroke-linejoin="round"/>
      <path d="M 42 10 A 44 44 0 0 1 -32 28"
            stroke="#3b82f6" stroke-width="5" fill="none" stroke-linecap="round"/>
      <polyline points="-36,32 -30,22 -22,26"
                stroke="#3b82f6" stroke-width="5" fill="none"
                stroke-linecap="round" stroke-linejoin="round"/>
      <text y="14" font-family="Helvetica Neue, Helvetica, Arial, sans-serif"
            font-size="36" font-weight="700" fill="#cbd5e1" text-anchor="middle">CN</text>
    </g>
  </g>
</svg>
